PathFileType	4	(X/Y/Z)	C:/Users/beibeiliu/ov580/test_trc/capture2\sequence.28_training_dense_right.trc
DataRate	CameraRate	NumFrames	NumMarkers	Units	OrigDataRate	OrigDataStartFrame	OrigNumFrames
120	120	20	19	mm	120	201	400
Frame#	Time	ThumbCMC			ThumbMCP			ThumbIP			ThumbTip			IndexMCP			IndexPIP			IndexTip			MiddleMCP			MiddlePIP			MiddleTip			RingMCP			RingPIP			RingTip			PinkyMCP			PinkyPIP			PinkyTip			BackHand1			BackHand2			BackHand3	
		X0	Y0	Z0	X1	Y1	Z1	X2	Y2	Z2	X3	Y3	Z3	X4	Y4	Z4	X5	Y5	Z5	X6	Y6	Z6	X7	Y7	Z7	X8	Y8	Z8	X9	Y9	Z9	X10	Y10	Z10	X11	Y11	Z11	X12	Y12	Z12	X13	Y13	Z13	X14	Y14	Z14	X15	Y15	Z15	X16	Y16	Z16	X17	Y17	Z17	X18	Y18	Z18	
200	1.66667	89.7901	-0.714519	50.0761	79.702	-13.2345	21.863	79.1493	-10.263	-9.45206	93.9723	-6.86853	-29.0594	88.5114	33.4576	-9.63587	86.8594	5.61617	-24.1452	95.0546	-5.78998	5.12607	112.337	24.3735	-18.5809	107.597	-4.97624	-22.49	110.513	-12.2496	14.9072	129.065	14.0565	-15.6444	121.645	-15.2283	-6.85434	122.394	-7.14863	27.3004	146.111	6.3146	-7.94517	130.483	-16.9262	7.9195	130.494	-3.38236	36.2331	139.803	34.9689	36.7402	146.685	18.6014	68.4239	112.741	31.0371	56.0001	
201	1.675	89.1518	-1.31185	53.5919	79.0662	-11.8862	19.4149	78.1159	-11.4739	-4.98378	94.4353	-7.05412	-27.9914	88.7044	32.0631	-7.9406	88.4736	2.60676	-20.9791	95.7444	-5.85741	9.42133	113.701	23.9446	-16.6677	102.968	-5.9005	-20.1751	108.519	-11.4192	19.338	130.855	14.0467	-13.3408	123.409	-16.0442	-7.80326	118.977	-9.0005	26.7719	145.409	6.61102	-5.9438	133.599	-18.8702	6.6663	132.478	-3.20651	36.658	146.355	32.8124	34.9967	145.288	21.0971	65.9901	111.62	28.3937	58.1422	
202	1.68333	90.9778	0.598082	51.0064	80.8216	-12.1879	22.2044	78.2139	-10.3799	-7.42708	97.9825	-5.48275	-25.1987	86.7814	31.0246	-10.4848	87.27	2.43498	-18.899	97.4235	-4.66533	12.0239	110.163	25.8332	-13.8352	105.153	-7.05677	-19.4478	105.509	-12.4998	15.4142	125.671	13.2177	-14.1613	119.784	-16.5807	-4.85802	120.539	-10.8716	26.2671	144.57	3.78356	-7.36375	130.285	-17.8819	7.52509	133.25	-5.69587	38.5338	146.571	33.24	37.5786	149.778	18.8637	63.6483	115.167	29.9131	56.9167	
203	1.69167	87.6313	2.53538	51.201	77.545	-10.9889	22.6873	79.6487	-9.02752	-6.31227	96.955	-5.57579	-26.9872	87.992	30.6662	-10.452	83.4728	3.18973	-18.4865	92.9778	-3.78608	16.0612	110.476	23.3852	-18.2527	103.139	-5.92634	-19.0634	108.481	-11.6405	17.681	128.064	10.883	-14.5878	116.73	-17.4265	-3.1726	121.646	-8.9442	29.0078	139.582	1.17981	-7.68548	128.129	-17.9146	10.3442	131.36	-7.31837	37.6569	146.466	32.2918	35.4438	152.783	17.2197	66.8362	115.939	33.31	56.1019	
204	1.7	91.0499	2.78604	54.5037	80.7169	-7.96139	23.2677	77.1183	-7.4812	-5.24686	93.7078	-6.64267	-24.9326	92.4843	32.3825	-11.7091	82.6621	4.38988	-16.5385	94.9458	-2.64304	16.2282	112.765	22.6112	-17.3997	103.755	-6.63921	-18.5388	103.517	-10.8039	18.6664	123.975	7.82572	-15.6777	116.036	-19.6488	-1.62981	116.751	-8.19304	29.6562	139.79	-0.402552	-6.54678	128.52	-22.4468	11.5858	129.664	-8.3694	38.2299	148.263	26.9533	34.4573	152.044	15.9086	63.3282	119.163	31.4597	56.4327	
205	1.70833	91.6494	6.65792	53.2693	75.4433	-5.14549	25.5654	76.0894	-5.42086	-3.31053	95.228	-5.25178	-23.4693	94.7036	33.3091	-11.0936	82.5044	6.75079	-15.6303	89.8521	-4.03015	11.5165	115.232	22.9463	-14.6417	101.144	-4.94693	-18.0569	105.097	-8.09476	21.9074	125.529	4.44393	-16.3943	110.544	-17.4905	-3.62409	114.229	-8.72381	28.3243	139.027	-1.73382	-5.02325	122.594	-22.8483	10.3609	127.396	-7.74242	39.7055	153.716	24.5345	32.4509	151.353	13.7285	65.3927	124.545	32.6054	55.2211	
206	1.71667	92.7321	11.1934	53.5798	77.5485	-1.00613	23.398	75.5289	-2.24625	-6.00065	93.3947	-4.92946	-24.7553	98.9874	35.7451	-10.5381	82.9862	12.3359	-16.6826	89.5244	-1.71139	13.616	116.767	23.546	-14.3215	99.5628	-4.72279	-17.7047	101.547	-6.4614	21.2085	126.953	4.9246	-13.1668	107.975	-18.9917	1.20481	117.1	-7.80318	32.6189	137.245	-6.26757	-5.31598	116.883	-21.4199	12.5477	125.461	-10.0283	39.1624	151.924	21.6887	33.2366	154.82	8.73686	61.3178	128.215	30.0743	53.8615	
207	1.725	93.7477	11.7797	56.6756	80.3881	2.07535	24.6902	74.219	1.63373	-4.4225	90.9281	-3.43143	-23.9349	99.7049	38.8685	-8.95444	84.7432	14.1675	-17.1185	87.5971	1.12382	11.4613	114.204	21.4989	-16.7344	97.8763	-2.25652	-16.6573	100.008	-3.31292	22.8866	126.545	4.40678	-11.1821	105.706	-17.641	3.33111	113.97	-9.47359	31.4393	136.529	-7.47339	-3.56359	117.063	-25.1912	14.6726	124.296	-10.2506	40.1732	154.488	18.7046	34.2235	157.17	4.81657	66.0492	130.958	30.2649	58.04	
208	1.73333	94.0028	15.0749	55.3704	77.9507	4.82186	26.4519	77.4229	4.84482	-4.02139	94.4149	-0.178004	-26.4904	103.778	41.6376	-7.27719	84.8298	20.948	-18.7454	87.2106	4.28499	15.7399	115.619	23.4565	-15.85	98.3197	-1.70397	-16.4937	101.41	-4.29991	21.0814	124.941	5.75569	-11.2371	104.68	-13.4802	-2.20321	113.173	-8.58008	31.601	131.735	-10.3413	-4.47659	116.039	-25.8606	12.0017	122.724	-11.5413	40.3924	153.562	15.9945	34.6149	155.484	6.17757	63.7141	133.112	30.7293	53.6417	
209	1.74167	94.0926	18.7039	55.5276	80.8015	8.78994	23.5677	79.2785	7.11303	-2.63921	95.3744	-0.17961	-26.1835	109.976	41.9084	-7.12741	89.3598	20.7785	-19.1657	87.5839	5.51296	9.13551	122.348	21.7013	-14.7783	99.3148	-0.931494	-16.4717	99.8892	0.500372	20.5873	126.186	3.83635	-12.414	103.789	-15.8086	3.22932	115.69	-5.97736	33.7333	132.717	-11.1837	-4.51886	111.852	-21.488	14.5786	121.886	-10.9681	41.1497	158.337	10.7625	31.7585	156.096	0.602337	63.3989	136.754	27.9701	53.1724	
210	1.75	101.04	19.3676	54.6524	85.8211	11.9229	21.8897	83.0456	9.17372	-5.40039	92.4623	1.34044	-23.1471	113.256	41.7876	-11.7905	93.6862	23.441	-22.65	86.5379	10.0296	11.1656	123.07	19.2369	-19.6808	97.0096	4.10665	-16.6194	100.569	1.05889	18.3148	129.67	2.09331	-12.4352	102.88	-11.3996	0.0937504	110.885	-4.03053	30.7464	137.2	-13.6093	-4.48008	111.806	-21.2186	11.4642	121.696	-9.95898	38.612	157.181	10.3392	33.7992	156.734	1.10122	66.5426	139.036	29.596	54.8592	
211	1.75833	99.3954	24.6145	52.3663	81.14	16.5471	24.2472	79.1493	14.4855	-6.02592	92.6727	3.62646	-28.2125	116.599	41.9154	-14.2687	94.2709	26.025	-23.5976	88.0056	12.5935	9.27086	127.233	22.4195	-17.8278	101.282	5.12092	-19.8101	100.66	2.46363	16.7526	126.439	1.75146	-13.9974	103.054	-13.8648	-0.912504	113.035	-6.54616	30.3825	134.045	-15.6919	-6.11046	111.238	-21.0416	6.85298	121.903	-10.8097	39.2458	159.496	9.04724	31.4821	156.324	-3.7899	64.5825	143.365	28.7477	51.7009	
212	1.76667	101.932	27.4775	50.1237	86.7533	17.347	24.0594	79.6414	17.2785	-5.98246	93.2427	4.88187	-28.9096	122.04	42.5188	-14.8989	99.7888	29.0034	-26.3868	88.2515	14.0322	4.77622	129.354	19.5	-22.0748	102.864	7.72211	-23.0475	100.031	1.29411	13.4384	129.227	-3.71778	-17.2004	102.466	-10.7101	-3.42598	110.735	-5.34186	28.3186	133.022	-17.8665	-7.58013	108.899	-20.8743	8.29322	121.016	-11.2185	36.8921	161.667	5.59487	33.0095	155.445	-1.57242	62.2166	143.901	28.8189	51.9506	
213	1.775	104.939	26.9686	51.4251	86.2902	21.2213	20.0074	80.9508	17.9003	-6.96814	93.8498	4.74834	-29.5368	128.468	41.892	-12.6654	105.155	30.8716	-30.5244	87.146	15.4881	-2.5256	136.012	20.1117	-20.2034	106.209	7.11807	-28.7777	99.268	-0.17758	9.91329	131.647	0.575976	-18.5812	105.258	-10.4586	-11.7918	106.977	-2.77746	23.5449	136.13	-17.7076	-8.24298	108.982	-22.3608	3.57258	115.158	-10.0664	30.1897	162.703	1.40619	35.4995	156.955	-5.90899	65.7508	145.33	27.4608	55.2287	
214	1.78333	104.577	27.8167	52.6216	87.4345	19.6273	25.0069	78.6328	18.816	-6.10599	85.6081	6.79227	-27.2961	132.642	40.8286	-15.0794	112.953	30.1567	-35.2896	87.4673	16.3839	-17.2879	140.536	22.2098	-22.5442	117.265	8.5354	-38.5146	93.3658	2.03403	-8.42496	137.47	0.974026	-21.9122	107.402	-9.48481	-21.6698	100.91	-8.09078	10.5085	137.955	-20.811	-11.8953	108.637	-20.0575	-3.85716	111.739	-10.5234	24.9477	163.875	-1.73651	30.7515	160.228	-8.36541	62.1822	147.005	22.9803	52.8778	
215	1.79167	105.599	27.5977	50.5914	86.0939	20.9442	21.9889	77.5145	18.7399	-2.22236	81.9128	8.0301	-26.9278	135.897	36.738	-17.3777	116.655	30.0993	-40.6231	89.5462	15.0804	-33.9767	146.862	24.6135	-24.5043	129.244	14.5928	-46.8135	96.3202	0.408057	-30.8316	145.298	-1.91001	-23.343	114.758	-6.29981	-33.2595	98.023	-8.12146	-8.53263	140.524	-19.1479	-14.3527	111.515	-24.9505	-13.8251	103.842	-15.7873	15.2935	161.482	-1.23977	33.2808	157.83	-7.12416	62.3933	147.376	26.8842	50.3438	
216	1.8	103.018	28.7059	50.8505	84.2561	19.487	24.4902	76.2394	16.253	-3.35921	78.5842	7.17671	-27.3214	134.816	36.7507	-16.374	121.419	28.7234	-42.3508	95.848	12.0333	-50.4184	151.26	24.6467	-18.6902	139.251	16.9168	-51.8266	107.584	8.66487	-57.0414	148.838	2.27373	-24.237	126.728	-6.4962	-42.0812	96.7725	-9.86771	-23.2234	141.836	-20.5574	-14.0281	112.89	-22.1956	-18.4174	101.99	-19.3549	12.5944	160.653	0.0524571	30.4215	158.914	-8.33591	59.3371	145.278	22.1362	51.4573	
217	1.80833	102.305	26.0305	51.4683	79.7403	19.7765	26.1186	71.0108	15.5165	-3.56732	75.3784	3.33297	-22.4693	132.604	36.5313	-17.6776	122.042	28.9194	-45.0687	104.064	12.5134	-62.5989	153.024	23.148	-22.1322	148.638	20.6952	-52.139	123.856	11.2919	-75.8317	150.068	1.69715	-24.0296	130.976	-8.016	-46.9681	99.3692	-12.507	-41.568	143.355	-22.2502	-14.3196	116.019	-27.5157	-23.3999	96.7674	-22.4533	0.610222	157.573	-3.97043	31.757	158.429	-7.58763	58.0185	143.757	22.9214	47.9284	
218	1.81667	101.637	24.1281	51.9179	79.1046	16.3736	24.8636	69.8761	11.7474	-3.44547	72.6291	1.00465	-24.2967	129.821	32.6764	-17.6871	122.461	25.8525	-45.162	114.309	10.2246	-68.1959	148.815	24.4224	-20.4447	150.183	22.2335	-51.8595	139.479	18.9172	-81.8557	147.969	0.225111	-24.2887	134.997	-8.80163	-48.079	102.419	-16.9402	-49.878	143.304	-20.3396	-12.4015	119.563	-31.9416	-27.2982	95.0562	-25.6677	-2.54895	158.258	-2.34334	33.3633	156.862	-4.81318	60.7327	143.819	21.2681	46.6731	
219	1.825	100.217	20.257	53.4529	75.8695	14.7228	26.8012	70.302	8.72343	-2.41442	74.4727	-3.83358	-22.664	128.786	26.8582	-15.4211	124.747	20.8776	-44.6707	122.321	12.4277	-66.1192	146.857	21.6908	-21.7636	147.666	21.6067	-47.7458	144.094	22.6445	-77.2012	147.367	-3.51314	-23.5638	131.036	-8.72993	-47.2188	99.8224	-18.8172	-51.104	141.817	-21.2513	-14.2093	120.321	-30.0999	-27.591	94.842	-32.8769	-7.33681	155.679	-4.65449	31.7895	154.415	-5.56773	60.4022	138.552	21.5111	49.795	
